<?xml version="1.0" standalone="no"?>
<!DOCTYPE svg PUBLIC "-//W3C//DTD SVG 20010904//EN"
 "http://www.w3.org/TR/2001/REC-SVG-20010904/DTD/svg10.dtd">
<svg version="1.0" xmlns="http://www.w3.org/2000/svg"
 width="220.000000pt" height="220.000000pt" viewBox="0 0 220.000000 220.000000"
 preserveAspectRatio="xMidYMid meet">
<metadata>
Created by potrace 1.14, written by Peter Selinger 2001-2017
</metadata>
<g transform="translate(0.000000,220.000000) scale(0.100000,-0.100000)"
fill="#000000" stroke="none">
<path d="M1024 2174 c-67 -46 -330 -301 -429 -417 -27 -33 -55 -64 -61 -70
-57 -62 -186 -281 -231 -392 -22 -54 -52 -145 -48 -145 3 0 0 -12 -6 -26 -5
-15 -12 -41 -14 -58 -3 -17 -8 -47 -11 -66 -3 -19 -7 -80 -9 -135 -10 -282
122 -542 361 -706 264 -182 649 -207 938 -62 104 52 152 87 241 178 213 216
277 486 199 835 -17 74 -62 210 -75 225 -5 5 -9 17 -9 26 0 10 -3 19 -7 21 -5
2 -19 26 -32 53 -84 171 -270 390 -561 660 -119 110 -173 128 -246 79z m220
-436 c232 -234 342 -388 409 -575 20 -55 57 -211 57 -240 0 -3 -17 10 -37 27
-34 30 -169 150 -197 175 -6 6 -67 60 -136 120 -69 60 -130 114 -136 120 -6 5
-41 37 -79 70 -84 74 -146 130 -205 184 l-45 41 107 105 c59 58 113 105 119
105 6 0 71 -60 143 -132z m-403 -211 c20 -17 66 -59 104 -92 38 -33 75 -67 84
-75 9 -9 54 -49 101 -90 47 -41 87 -77 90 -80 3 -3 41 -37 85 -75 44 -39 85
-74 91 -80 6 -5 44 -39 84 -75 41 -36 91 -81 113 -101 l39 -35 -144 -33 c-78
-18 -150 -34 -158 -36 -8 -2 -76 -17 -151 -34 -75 -18 -145 -33 -155 -35 -11
-2 -68 -15 -129 -29 -236 -55 -311 -71 -329 -72 -15 0 -26 15 -42 56 -68 168
-37 421 79 647 44 88 175 272 192 272 6 0 26 -15 46 -33z m853 -839 c-10 -33
-56 -131 -68 -145 -6 -7 -24 -30 -41 -51 -32 -42 -129 -119 -184 -147 -42 -21
-133 -51 -186 -61 -92 -17 -271 -3 -325 26 -11 6 -20 8 -20 6 0 -3 -30 10 -67
29 -65 33 -163 108 -163 124 0 5 28 14 63 21 34 7 67 14 72 16 14 3 248 56
480 109 110 25 245 56 300 69 134 32 148 32 139 4z"/>
</g>
</svg>
